<?xml version="1.0" standalone="no"?>
<!DOCTYPE svg PUBLIC "-//W3C//DTD SVG 20010904//EN"
 "http://www.w3.org/TR/2001/REC-SVG-20010904/DTD/svg10.dtd">
<svg version="1.0" xmlns="http://www.w3.org/2000/svg"
 width="1024.000000pt" height="1024.000000pt" viewBox="0 0 1024.000000 1024.000000"
 preserveAspectRatio="xMidYMid meet">
<metadata>
Created by potrace 1.16, written by Peter Selinger 2001-2019
</metadata>
<g transform="translate(0.000000,1024.000000) scale(0.100000,-0.100000)"
fill="#000000" stroke="none">
<path d="M7589 8304 c-41 -43 -124 -99 -182 -122 -39 -15 -189 -17 -1872 -17
-2063 0 -1861 8 -2133 -80 -147 -47 -239 -95 -395 -205 -154 -109 -367 -328
-446 -460 -61 -102 -78 -146 -46 -120 13 11 14 10 10 -2 -5 -11 1 -15 19 -15
14 0 26 5 26 11 0 6 4 5 9 -3 5 -7 14 -10 20 -7 6 4 2 -16 -9 -46 -24 -62 -63
-204 -93 -333 -20 -89 -21 -113 -24 -1597 -2 -830 -7 -1508 -12 -1508 -4 0 -7
44 -6 98 1 53 0 67 -2 30 -3 -55 -6 -66 -17 -56 -7 7 -11 22 -9 33 4 16 3 17
-6 5 -11 -16 -14 -9 -11 28 1 12 -3 22 -9 22 -6 0 -11 -8 -12 -17 0 -15 -2
-15 -9 2 -8 19 -9 18 -11 -5 -1 -14 -5 4 -9 40 l-7 65 -2 -55 c-1 -48 -3 -52
-14 -35 -9 15 -12 345 -12 1425 0 1274 2 1413 17 1490 9 46 14 88 12 92 -3 4
-1 8 5 8 5 0 9 22 9 50 -1 28 -3 50 -5 50 -2 0 -10 -15 -18 -32 -13 -31 -14
-31 -15 -8 l0 25 -14 -27 c-25 -48 -26 -49 -42 -33 -24 24 -31 18 -39 -31 -8
-55 -14 -53 -17 5 -1 32 -4 38 -11 26 -5 -9 -6 -23 -3 -31 3 -8 2 -13 -3 -10
-10 6 -35 -123 -57 -287 -22 -166 -21 -2721 1 -2888 57 -435 250 -817 566
-1125 162 -157 272 -234 469 -328 124 -59 198 -85 327 -117 217 -52 143 -50
2203 -52 l1915 -2 3 808 c1 444 1 808 0 809 -2 2 -405 5 -896 8 l-892 5 60 62
c53 54 60 65 50 83 -14 26 -33 26 -25 1 5 -17 2 -19 -22 -17 -15 2 -26 7 -23
12 3 5 12 8 20 7 12 -1 11 1 -2 11 -16 12 -16 14 0 32 9 10 2 6 -15 -10 -18
-16 -31 -31 -28 -34 7 -7 -19 -30 -28 -25 -5 3 -7 -3 -5 -13 2 -11 -2 -18 -8
-17 -7 1 -33 -20 -59 -48 l-46 -50 -108 3 -109 3 89 94 c48 52 85 99 82 104
-3 6 -2 7 4 4 15 -9 77 59 67 74 -5 8 -2 11 8 6 23 -8 86 59 70 75 -9 9 -15 9
-24 -1 -11 -10 -10 -11 5 -6 9 4 17 3 17 -1 0 -12 -50 -58 -64 -60 -40 -4 -39
-3 -25 -21 11 -13 8 -13 -12 2 -15 11 -24 22 -20 25 20 14 19 40 -2 52 -12 6
-24 11 -27 10 -3 -1 -5 4 -5 11 0 6 6 11 12 10 7 -2 12 0 10 5 -3 11 64 81
110 113 23 16 49 37 59 46 12 13 19 14 21 6 3 -8 14 -1 29 17 14 16 44 44 67
62 l42 33 -40 -55 c-22 -30 -31 -49 -21 -41 18 15 59 23 51 11 -2 -3 -6 -18
-9 -33 -4 -23 -2 -26 12 -18 9 5 28 21 42 36 14 15 55 54 93 86 l68 59 84 0
c47 0 85 -3 85 -8 0 -4 -18 -29 -40 -56 -22 -26 -40 -50 -40 -52 0 -2 12 1 26
7 15 5 35 7 45 4 11 -4 19 -2 19 3 0 6 12 8 28 6 21 -3 38 7 82 46 l55 50 303
0 302 0 0 735 0 735 -443 0 c-244 0 -526 3 -626 7 l-181 6 16 26 c15 23 12 22
-18 -6 l-34 -33 -112 0 c-62 0 -112 4 -112 9 0 4 11 20 25 35 20 22 21 26 7
26 -10 0 -23 -5 -30 -12 -9 -9 -12 -8 -12 5 0 23 -20 22 -21 0 0 -11 -3 -13
-6 -5 -2 6 -8 10 -13 7 -4 -3 -13 2 -20 10 -15 18 -51 19 -69 3 -8 -7 -5 1 5
17 12 21 -2 11 -48 -32 l-66 -63 -169 1 c-92 0 -190 4 -216 7 l-48 7 213 210
c390 385 487 475 511 475 13 0 27 4 33 9 10 10 369 19 379 10 3 -4 -13 -23
-35 -43 -22 -20 -36 -36 -31 -36 5 0 14 7 22 16 17 20 71 49 87 46 6 -2 12 1
12 6 0 5 24 5 53 1 28 -3 60 -3 69 2 29 15 42 11 27 -8 -11 -13 -5 -12 22 5
31 19 51 22 133 22 53 0 96 -3 96 -7 0 -5 75 -5 167 -2 93 4 336 7 541 8 l372
1 0 825 c0 454 -1 825 -3 825 -2 0 -19 -16 -38 -36z m-1704 -440 l-119 -114
-268 2 c-304 3 -297 5 -305 -78 -7 -80 -12 -94 -33 -94 -10 0 -21 4 -24 8 -10
16 -103 14 -119 -3 -23 -22 -777 -23 -777 -1 0 8 -10 16 -22 18 -15 2 -24 11
-26 25 -2 12 -12 25 -22 28 -10 3 -22 15 -25 26 -4 10 -10 19 -15 19 -13 0
-165 -144 -447 -424 l-253 -251 0 -356 0 -356 48 -30 c68 -42 96 -101 90 -187
-5 -84 -37 -134 -109 -170 -116 -58 -226 -18 -289 104 -8 14 -13 50 -13 80 0
89 51 166 132 199 l31 13 0 382 0 381 123 119 c67 66 213 209 323 318 l202
198 454 0 455 0 129 130 128 130 431 2 c236 2 432 1 435 -1 3 -2 -49 -55 -115
-117z m-1404 95 c16 -16 20 -28 15 -52 -4 -17 -12 -35 -19 -39 -6 -4 -134 -8
-284 -8 l-272 0 -38 -32 c-31 -27 -206 -187 -327 -300 -21 -21 -32 -25 -42
-17 -10 8 -11 5 -7 -11 5 -17 -35 -61 -208 -236 l-214 -214 -5 -53 c-6 -63
-31 -100 -87 -127 -46 -23 -96 -20 -146 9 -90 51 -92 189 -4 255 27 20 94 26
149 15 11 -3 91 68 230 202 117 113 224 210 236 214 15 4 21 12 18 21 -4 11 1
13 22 9 24 -5 25 -4 5 4 -20 9 -21 13 -10 40 6 17 15 31 19 31 4 0 8 9 8 20 0
11 7 20 15 20 8 0 15 5 15 10 0 6 12 10 28 11 25 1 24 2 -8 10 -42 10 -60 5
-60 -16 0 -8 -5 -15 -11 -15 -6 0 -8 -7 -5 -17 4 -10 4 -14 0 -11 -4 4 -18 -2
-32 -12 -17 -14 -40 -20 -72 -20 -154 0 -159 220 -6 237 53 6 112 -24 122 -63
7 -28 16 -30 34 -9 7 8 9 15 5 15 -4 0 5 20 19 44 14 24 23 46 19 49 -3 3 8 9
23 12 16 4 45 12 64 18 47 14 252 23 548 25 234 2 243 1 263 -19z m2818 -351
c0 -205 -3 -367 -6 -360 -2 6 -8 10 -13 7 -5 -3 -16 2 -24 11 -12 11 -16 36
-16 97 -1 79 -1 81 -18 61 -22 -26 -42 -21 -35 9 3 12 -8 -3 -23 -33 -32 -61
-97 -112 -167 -131 -81 -22 -175 5 -251 71 -43 39 -58 38 -97 -5 -45 -49 -75
-47 -128 10 -23 25 -44 45 -47 45 -3 0 -25 -20 -49 -45 -29 -30 -48 -43 -59
-39 -9 3 -16 1 -16 -5 0 -30 -47 -32 -918 -34 l-877 -2 -80 -29 c-44 -16 -106
-42 -137 -57 -32 -16 -65 -29 -75 -29 -10 0 -38 14 -63 30 -25 16 -49 30 -54
30 -4 0 -5 -20 -2 -45 7 -45 7 -45 -22 -45 -31 0 -57 21 -44 35 4 4 -6 5 -22
1 -26 -6 -28 -5 -16 9 7 8 10 18 6 22 -3 3 -6 1 -6 -5 0 -7 -7 -12 -16 -12
-10 0 -14 -6 -10 -15 5 -14 -4 -19 -31 -16 -6 1 -19 -9 -27 -21 -13 -18 -16
-19 -16 -5 0 9 3 17 8 17 4 1 32 23 62 50 54 49 85 66 59 33 -13 -16 -12 -17
3 -4 10 7 16 17 13 21 -14 22 178 116 300 148 170 44 194 45 1284 40 l1036 -5
0 83 0 84 -67 0 -67 0 20 34 c52 89 153 175 242 207 57 20 45 32 -28 27 -51
-5 -73 -12 -107 -37 -23 -17 -48 -31 -55 -31 -13 0 -148 -129 -154 -148 -4
-10 -32 9 -90 61 -14 13 -18 12 -30 -6 -17 -23 -68 -47 -103 -47 -14 0 -40 13
-58 29 -27 23 -45 29 -106 35 l-73 6 -77 -70 c-60 -54 -84 -70 -107 -70 -28 0
-15 15 171 205 l201 205 541 0 542 0 -1 -372z m-2557 345 c22 -20 23 -70 1
-95 -19 -22 -70 -23 -97 -3 -27 20 -27 82 -1 101 26 19 74 18 97 -3z m961
-268 c-20 -25 -42 -45 -48 -45 -6 0 -21 -13 -33 -30 l-23 -30 -102 1 c-71 1
-92 4 -67 9 l35 7 -38 2 c-48 1 -45 23 4 32 20 4 -8 7 -69 8 -99 1 -103 2
-114 26 -9 21 -8 28 7 45 17 19 31 20 252 20 l234 0 -38 -45z m-2558 -91 c23
-9 48 -62 41 -89 -7 -28 -206 -221 -215 -207 -3 5 -16 13 -29 17 -13 4 -31 20
-41 36 -10 16 -21 26 -26 21 -4 -4 -3 2 3 13 6 11 55 64 110 118 96 94 117
106 157 91z m2272 -341 c-4 -3 0 -11 9 -17 8 -6 17 -30 19 -54 4 -36 1 -44
-20 -58 -23 -15 -27 -15 -50 0 -21 14 -65 16 -322 16 -164 0 -339 -5 -389 -10
-92 -10 -255 -57 -302 -88 -19 -12 -28 -13 -43 -4 -10 7 -55 12 -99 12 -89 0
-125 -13 -159 -56 -19 -25 -20 -29 -6 -44 26 -28 36 -80 24 -122 -11 -42 -60
-81 -116 -93 l-33 -7 0 -244 0 -244 -25 -12 c-20 -9 -25 -18 -25 -47 0 -44 3
-49 63 -91 62 -44 77 -90 51 -159 -11 -29 -19 -85 -21 -149 -3 -74 -8 -102
-16 -99 -16 5 -22 226 -7 241 14 14 12 62 -4 95 -8 15 -33 40 -55 54 -35 23
-41 33 -42 65 -2 74 2 97 24 115 20 18 21 28 25 255 l4 237 -36 37 c-32 33
-36 43 -36 87 0 45 3 53 34 77 51 41 73 40 36 -2 -35 -40 -37 -67 -10 -111 17
-28 26 -33 58 -33 45 0 86 32 79 61 -3 11 -2 19 3 19 12 0 3 52 -12 61 -18 11
-35 -8 -20 -23 28 -28 0 -88 -41 -88 -30 0 -57 29 -57 61 0 31 23 49 65 49 17
0 28 7 34 23 5 12 20 33 35 46 14 13 23 27 21 31 -3 5 14 16 38 25 31 13 65
17 128 16 58 -2 89 1 94 9 5 8 20 9 41 5 25 -4 61 3 132 27 l97 33 394 3 c360
3 395 2 412 -14 11 -9 19 -14 19 -9 0 4 -11 17 -24 29 -32 29 -40 64 -15 71
11 4 17 11 14 16 -4 5 4 9 16 9 12 0 19 -3 16 -7z m87 -9 c3 -8 9 -13 14 -10
14 9 35 -11 36 -35 1 -22 6 -24 60 -27 40 -2 62 1 68 10 12 20 10 28 -14 38
-17 6 -18 9 -6 9 9 1 20 -4 23 -9 4 -7 12 -7 25 0 10 5 25 8 33 5 8 -4 14 0
14 10 0 9 -6 14 -12 11 -7 -2 -18 0 -26 5 -10 6 -8 9 11 9 28 0 67 -19 40 -20
-13 0 -13 -1 0 -10 9 -6 10 -10 3 -10 -8 0 -7 -9 3 -29 l15 -30 447 0 c246 -1
488 -4 537 -9 60 -4 -93 -9 -455 -14 -300 -4 -561 -7 -580 -7 -19 -1 -70 2
-112 5 -63 4 -81 3 -94 -10 -20 -20 -27 -20 -53 2 -29 24 -36 102 -9 102 10 0
18 5 18 11 0 6 -9 8 -22 4 -18 -5 -20 -4 -8 4 21 15 37 13 44 -5z m-2299 -594
l0 -155 -37 -3 c-26 -2 -38 1 -38 10 -3 67 2 293 6 300 3 5 20 8 37 6 l32 -3
0 -155z m2195 31 l245 -2 -35 -31 c-19 -17 -89 -83 -155 -147 -384 -370 -559
-531 -577 -531 -22 0 -41 17 -29 24 6 4 9 11 6 16 -3 4 4 10 15 13 21 5 43 50
38 76 -4 22 -33 20 -32 -1 1 -10 -1 -16 -5 -15 -3 1 -18 -7 -33 -17 -40 -26
-99 -31 -136 -12 -22 11 -58 16 -127 16 -95 0 -95 0 -95 25 0 24 2 25 73 25
l73 0 0 44 c-1 24 -4 47 -8 51 -11 11 3 36 16 28 8 -4 8 -3 0 6 -9 10 -17 10
-35 -1 -13 -7 -26 -16 -29 -19 -3 -4 -10 -1 -16 6 -9 9 39 63 209 233 l221
222 85 -4 c47 -2 196 -4 331 -5z m-668 -38 c-29 -41 -252 -258 -252 -246 0 53
110 224 144 223 6 0 3 -5 -6 -11 -10 -5 -18 -15 -18 -21 0 -6 8 -4 18 5 10 10
22 14 27 10 4 -5 3 2 -4 14 -10 19 -9 21 9 18 11 -2 25 -7 32 -11 7 -5 8 -3 3
6 -6 10 -4 12 7 7 9 -3 24 3 34 14 25 28 28 23 6 -8z m-1834 -616 c-3 -541 -3
-542 -25 -577 -13 -19 -23 -28 -23 -20 0 11 -3 11 -12 2 -19 -19 -38 -14 -38
9 0 11 -4 18 -10 14 -5 -3 -7 -13 -4 -23 5 -17 -7 5 -23 43 -5 13 -10 -24 -13
-103 -3 -69 -9 -123 -15 -125 -6 -1 -11 84 -13 236 -2 236 -2 237 -24 237 -31
0 -68 38 -68 71 0 34 34 69 67 69 20 0 23 5 23 43 0 40 -2 44 -32 52 -21 7
-38 21 -47 39 -19 41 6 94 49 102 l30 7 0 233 0 234 91 0 90 0 -3 -543z m2422
-452 l-44 -45 -561 2 c-308 1 -528 4 -490 8 39 4 61 8 50 10 -30 5 242 17 480
21 200 3 204 3 85 9 -69 3 -106 7 -82 8 23 1 42 6 42 12 0 5 -7 7 -15 4 -8 -4
-23 -2 -32 2 -11 5 109 11 292 14 171 3 312 4 314 2 3 -1 -15 -23 -39 -47z
m1499 20 c1 -16 0 -184 -4 -372 l-7 -342 -24 29 c-22 26 -24 37 -24 134 0 64
-4 106 -10 106 -5 0 -10 -7 -10 -15 0 -8 -4 -15 -10 -15 -5 0 -10 7 -10 16 0
8 -4 12 -10 9 -6 -4 -10 9 -11 32 l-1 38 -9 -37 c-20 -88 -109 -171 -195 -184
-94 -14 -205 39 -251 121 -17 31 -23 56 -22 105 0 109 46 190 128 226 25 11
37 22 34 31 -3 7 1 13 8 13 7 0 3 7 -9 16 -21 14 -26 14 -64 -1 -23 -9 -58
-29 -77 -44 -20 -16 -42 -26 -48 -24 -7 3 -13 0 -13 -6 0 -6 -4 -11 -9 -11
-10 0 -7 32 4 50 11 19 -22 10 -40 -10 -10 -11 -24 -20 -31 -20 -7 0 -25 -12
-40 -26 -20 -21 -28 -24 -34 -14 -6 10 -11 3 -17 -21 l-9 -34 -128 -3 -127 -3
16 25 c10 15 15 40 13 63 -3 34 -8 41 -46 60 -64 32 -130 16 -168 -41 -22 -35
-29 -127 -14 -190 13 -53 13 -54 58 -60 25 -3 73 -6 108 -6 55 0 64 -3 64 -18
0 -9 9 -34 20 -55 11 -20 20 -38 20 -40 0 -1 -35 -1 -78 1 -67 3 -81 1 -105
-18 -15 -12 -27 -26 -27 -32 0 -22 -54 -81 -86 -94 -85 -35 -154 -7 -212 86
l-37 60 -487 0 c-269 0 -488 4 -488 9 0 12 137 21 340 22 278 2 369 7 559 29
57 6 79 5 94 -5 14 -10 15 -14 5 -19 -7 -3 -1 -3 15 0 28 6 33 -2 29 -49 -3
-28 55 -106 84 -113 51 -13 125 20 108 47 -5 8 -3 9 6 4 15 -9 26 7 40 58 6
20 15 37 21 37 6 0 8 4 5 8 -3 4 34 9 82 11 90 3 106 6 83 20 -7 5 -10 14 -7
20 5 7 -2 12 -16 13 -13 0 -36 2 -51 3 -31 2 -45 -10 -22 -19 22 -8 18 -26 -5
-26 -11 0 -20 5 -20 10 0 6 -11 10 -25 10 -26 0 -34 15 -12 23 6 2 0 3 -14 1
-14 -1 -31 2 -38 9 -9 9 -99 14 -309 18 -163 3 -255 6 -203 7 165 3 93 11
-112 12 -108 1 -197 3 -197 4 0 1 31 35 68 74 l68 72 204 0 204 0 131 129 131
130 634 -2 635 -2 4 -30z m-2881 -91 c165 -82 170 -315 9 -390 -99 -46 -201
-25 -270 56 -78 91 -73 211 11 293 71 69 163 84 250 41z m-560 -231 c0 -106
-4 -151 -8 -123 -4 25 -8 40 -8 34 -1 -6 -13 -16 -27 -22 -21 -10 -25 -9 -26
6 -1 9 -5 1 -9 -18 -4 -21 -8 28 -9 126 l-1 160 45 3 45 2 -2 -168z m2137
-135 c21 -9 25 -18 25 -55 0 -44 -25 -83 -54 -83 -8 0 -21 -2 -29 -5 -7 -3
-28 7 -45 24 -78 72 2 165 103 119z m-1985 -65 l41 -58 -3 -505 -3 -505 -62
77 -63 77 0 459 c0 450 0 460 21 486 11 14 22 26 24 26 2 0 22 -26 45 -57z
m513 -135 c13 -18 34 -44 46 -57 11 -13 21 -29 21 -35 0 -6 -25 -35 -54 -65
-72 -70 -129 -159 -168 -262 -31 -83 -32 -87 -32 -259 0 -151 3 -186 22 -255
23 -82 61 -169 106 -241 l25 -41 -60 -47 c-33 -26 -67 -50 -75 -53 -29 -11
-12 17 38 62 l52 47 -18 31 c-99 170 -128 277 -131 487 l-3 155 -66 3 c-58 3
-66 5 -62 20 2 9 10 41 17 71 33 150 106 280 216 389 47 45 88 82 93 82 4 0
19 -15 33 -32z m-1007 -154 c107 -51 143 -185 73 -273 -27 -33 -70 -58 -66
-39 1 7 -8 17 -20 23 -13 5 -23 13 -23 17 0 5 -12 8 -27 8 -16 0 -33 4 -40 8
-6 4 5 7 27 7 52 0 80 27 80 76 0 48 -30 79 -77 79 -40 0 -83 -37 -83 -71 0
-20 -1 -20 -22 -6 -13 8 -24 20 -24 26 -1 6 -2 19 -3 29 -1 14 -5 14 -21 -7
-31 -36 -24 -2 9 52 50 78 140 107 217 71z m1129 -83 c-3 -12 -10 -19 -14 -17
-3 2 -22 -19 -41 -49 -19 -29 -38 -51 -42 -48 -5 2 -8 -7 -8 -21 0 -14 -4 -26
-9 -26 -4 0 -18 -43 -31 -95 -20 -82 -22 -111 -17 -208 4 -63 15 -142 26 -180
20 -69 87 -203 140 -282 23 -34 27 -46 17 -54 -10 -8 -25 9 -65 70 -105 161
-142 279 -144 464 -1 73 3 142 12 175 15 65 70 190 82 190 5 0 9 5 9 12 0 13
81 100 88 94 2 -3 1 -14 -3 -25z m1275 -216 c0 -3 -148 -154 -330 -335 -198
-198 -337 -330 -348 -330 -53 0 -202 146 -248 243 -20 42 -11 63 14 30 10 -12
42 -54 72 -93 30 -40 77 -90 104 -113 l48 -41 87 89 c48 49 81 90 74 92 -9 3
-4 17 13 45 30 47 41 98 25 124 -9 17 -10 15 -11 -13 0 -18 -5 -33 -11 -33 -6
0 -8 7 -5 16 3 8 -1 29 -10 46 -9 17 -14 39 -11 49 3 11 1 22 -4 25 -5 3 -9
-2 -9 -10 0 -9 -4 -16 -10 -16 -5 0 -6 8 -3 17 5 13 2 15 -11 10 -9 -4 -15 -3
-12 1 3 5 -4 21 -15 38 -10 16 -19 39 -19 51 0 19 -5 22 -29 20 -20 -1 -56
-28 -125 -92 -101 -93 -144 -120 -177 -110 -29 10 -24 35 7 35 21 0 52 25 133
104 159 155 128 140 309 146 231 8 502 11 502 5z m410 -2 c0 -11 -100 -124
-255 -288 -269 -286 -318 -340 -341 -377 l-24 -38 -144 0 -144 0 71 67 c40 37
180 174 312 304 132 131 264 258 294 283 50 42 58 45 120 49 36 2 76 4 89 5
12 1 22 -1 22 -5z m-3100 -183 c43 -43 11 -120 -48 -120 -60 0 -95 78 -55 122
22 24 77 24 103 -2z m2080 -45 c36 -19 50 -43 50 -88 0 -102 -137 -129 -185
-37 -19 37 -19 53 1 91 24 48 80 62 134 34z m-1635 -25 c39 -43 9 -120 -47
-120 -27 0 -68 45 -68 75 0 56 77 87 115 45z m2353 -285 c23 -29 19 -59 -11
-92 -49 -55 -134 1 -106 69 21 51 85 64 117 23z m-2107 -278 c78 -53 99 -133
57 -217 -31 -62 -85 -92 -154 -87 -147 10 -213 162 -116 269 44 49 62 57 128
57 37 1 60 -5 85 -22z m979 -74 c0 -9 6 -13 15 -9 8 3 49 -15 91 -40 81 -48
179 -84 284 -106 51 -10 229 -13 833 -11 693 2 767 0 756 -14 -8 -8 -60 -55
-116 -104 l-103 -90 -65 51 c-84 64 -151 84 -256 78 -136 -8 -244 -79 -310
-203 l-24 -45 -212 0 -213 0 -1 23 0 22 -11 -22 c-10 -21 -18 -23 -77 -22 -36
1 -54 4 -39 6 27 4 30 16 19 74 -2 9 -12 10 -245 14 -220 5 -271 12 -361 55
-11 5 -33 14 -48 20 -16 5 -25 14 -22 20 3 5 0 8 -7 5 -14 -6 -42 16 -135 107
-35 33 -63 66 -63 73 0 7 -6 15 -12 17 -8 3 0 17 22 36 37 35 56 41 46 16 -3
-8 -2 -13 2 -10 5 3 35 -22 68 -55 59 -61 146 -115 165 -104 13 9 1 44 -27 78
-31 36 -30 53 1 73 14 9 31 26 37 37 9 17 8 19 -7 13 -15 -5 -16 -4 -6 8 7 8
9 21 5 27 -4 8 -3 9 4 5 7 -4 12 -14 12 -23z m-420 -358 l285 -285 428 0 c242
0 427 -4 425 -9 -5 -15 -112 -102 -136 -112 -13 -5 -182 -9 -376 -9 l-352 0
-45 29 c-24 16 -161 146 -304 290 l-260 261 -72 0 c-40 0 -73 2 -73 4 0 2 12
29 26 60 l25 56 72 0 72 0 285 -285z m3296 -167 c-4 -199 -9 -364 -12 -367 -3
-3 -10 1 -15 9 -8 11 -9 10 -4 -7 4 -13 2 -23 -4 -23 -5 0 -13 10 -17 23 -4
12 -11 25 -17 29 -7 4 -2 26 14 60 21 46 24 68 24 168 0 103 -3 120 -25 164
-110 214 -424 237 -572 41 -33 -44 -62 -66 -52 -40 3 7 12 16 21 19 9 4 13 13
9 22 -3 9 -2 12 5 9 6 -4 9 -1 7 7 -3 15 7 29 67 90 33 34 36 40 18 36 -16 -4
-23 -2 -23 8 0 10 -15 14 -52 15 -29 1 -80 3 -112 5 l-59 3 -102 -97 c-56 -53
-108 -107 -115 -119 -17 -29 -36 -29 -51 -1 -10 19 0 33 132 162 l144 141 399
3 399 3 -7 -363z m-300 127 c102 -30 174 -124 175 -228 1 -71 -35 -154 -83
-190 -108 -83 -235 -70 -336 34 l-41 43 -12 -27 c-12 -26 -46 -43 -68 -35 -6
1 8 23 30 47 39 42 47 70 12 39 -10 -8 -56 -27 -103 -42 -120 -39 -159 -65
-241 -159 -40 -45 -78 -86 -86 -90 -20 -12 -470 -4 -483 9 -8 8 5 8 46 1 123
-23 260 26 348 124 41 46 96 142 96 168 0 8 73 11 225 11 l225 0 0 63 c1 108
65 203 158 231 61 19 78 19 138 1z m-3259 -12 c93 -44 123 -198 50 -259 -22
-19 -22 -19 -4 2 23 28 21 40 -7 40 -14 0 -22 -4 -20 -8 6 -10 -17 -10 -33 0
-8 5 -9 13 -3 22 15 23 12 63 -6 88 -19 27 -75 30 -100 5 -17 -17 -17 -17 -12
5 4 14 2 22 -6 22 -22 0 -37 22 -25 37 16 18 4 16 -15 -3 -9 -8 -16 -11 -16
-5 0 15 31 42 65 57 41 18 90 17 132 -3z m2265 -28 c28 -20 53 -49 71 -84 45
-90 32 -178 -36 -249 -47 -49 -84 -65 -152 -66 -121 -2 -209 76 -222 196 -10
94 48 190 137 227 14 6 55 10 92 8 56 -2 75 -8 110 -32z m-583 -394 c38 -28
81 -111 81 -159 0 -32 -34 -117 -52 -128 -19 -12 -58 6 -58 27 0 16 -5 20 -20
16 -20 -5 -20 -5 0 20 29 37 27 97 -5 128 -35 36 -85 34 -129 -5 -33 -29 -35
-30 -48 -12 -7 10 -22 22 -33 26 -13 5 -15 10 -7 13 6 3 12 10 12 17 0 13 43
56 75 75 35 20 145 9 184 -18z m-460 -112 c15 -24 17 -38 10 -62 -5 -17 -14
-34 -21 -39 -7 -4 -91 -8 -187 -8 -156 0 -173 2 -155 15 16 12 16 14 3 15 -9
0 -22 7 -30 16 -7 8 -20 13 -29 11 -13 -3 -16 1 -13 22 3 17 1 22 -4 13 -7 -9
-15 -4 -31 18 l-23 30 231 0 230 0 19 -31z"/>
<path d="M3321 6196 c-95 -52 -43 -199 63 -179 33 7 76 56 76 88 0 37 -19 70
-50 88 -34 20 -57 21 -89 3z"/>
<path d="M6872 7604 c-83 -58 -55 -201 43 -220 66 -12 145 50 145 114 0 38
-30 92 -61 107 -37 20 -99 19 -127 -1z"/>
<path d="M4919 6475 c-15 -8 -34 -30 -43 -49 -18 -38 -22 -111 -6 -121 6 -4 8
-10 6 -14 -7 -11 52 -43 66 -35 6 4 8 3 5 -3 -8 -13 48 -23 85 -16 17 3 37 20
53 46 24 34 27 48 23 95 -4 47 -10 60 -37 84 -25 23 -40 28 -79 28 -26 -1 -59
-7 -73 -15z m134 -43 c21 -20 27 -35 27 -66 -1 -67 -40 -99 -114 -94 -24 2
-44 5 -44 8 1 3 -7 22 -16 44 -20 45 -14 85 17 113 42 39 84 37 130 -5z"/>
<path d="M4696 6225 c-35 -32 -34 -69 3 -106 37 -36 79 -38 109 -6 71 75 -36
182 -112 112z"/>
<path d="M6410 5326 c-45 -15 -75 -57 -75 -107 0 -34 6 -46 38 -75 61 -56 147
-41 182 32 31 65 -5 137 -78 153 -20 5 -47 4 -67 -3z"/>
<path d="M3774 5376 c-41 -41 -44 -78 -11 -127 45 -67 138 -59 173 15 21 42
13 79 -26 117 -41 42 -91 40 -136 -5z"/>
<path d="M4960 4400 c-55 -55 20 -152 95 -124 44 17 48 99 7 130 -26 20 -79
17 -102 -6z"/>
<path d="M3305 3575 c-48 -47 -20 -125 45 -125 67 0 96 88 44 129 -35 27 -59
26 -89 -4z"/>
<path d="M6876 3061 c-94 -62 -66 -197 46 -216 68 -12 128 38 128 108 0 100
-96 159 -174 108z"/>
<path d="M5855 3072 c-30 -6 -73 -51 -80 -83 -13 -56 42 -119 103 -119 47 0
102 55 102 102 0 60 -65 112 -125 100z"/>
</g>
</svg>
